<svg xmlns="http://www.w3.org/2000/svg" width="200" height="32" viewBox="0 0 200 32" fill="none"><path d="M13.8583 7.75911C13.6198 7.75911 13.3813 7.68472 13.1746 7.53064C12.6685 7.15075 12.5625 6.43346 12.9414 5.92605L14.3723 4.00002L13.3654 1.99694C13.0818 1.43109 13.3071 0.740371 13.8715 0.456115C14.4359 0.171859 15.1249 0.39767 15.4084 0.963526L16.7334 3.60153C16.9295 3.98939 16.8871 4.4543 16.63 4.80497L14.7751 7.29952C14.5499 7.60237 14.2054 7.76176 13.8556 7.76176L13.8583 7.75911Z" fill="#662483"></path><path d="M8.26433 7.75911C8.02584 7.75911 7.78735 7.68472 7.58066 7.53064C7.07453 7.15075 6.96854 6.43346 7.34747 5.92605L8.77841 4.00002L7.77145 1.99694C7.48792 1.43109 7.71316 0.740371 8.27758 0.456115C8.84201 0.171859 9.53098 0.39767 9.81451 0.963526L11.1395 3.60153C11.3355 3.98939 11.2931 4.4543 11.0361 4.80497L9.18119 7.29952C8.95595 7.60237 8.61147 7.76176 8.26168 7.76176L8.26433 7.75911Z" fill="#662483"></path><path d="M13.8583 7.75911C13.6198 7.75911 13.3813 7.68472 13.1746 7.53064C12.6685 7.15075 12.5625 6.43346 12.9414 5.92605L14.3723 4.00002L13.3654 1.99694C13.0818 1.43109 13.3071 0.740371 13.8715 0.456115C14.4359 0.171859 15.1249 0.39767 15.4084 0.963526L16.7334 3.60153C16.9295 3.98939 16.8871 4.4543 16.63 4.80497L14.7751 7.29952C14.5499 7.60237 14.2054 7.76176 13.8556 7.76176L13.8583 7.75911Z" fill="url(#paint0_linear_4001_6732)"></path><path d="M8.26433 7.75911C8.02584 7.75911 7.78735 7.68472 7.58066 7.53064C7.07453 7.15075 6.96854 6.43346 7.34747 5.92605L8.77841 4.00002L7.77145 1.99694C7.48792 1.43109 7.71316 0.740371 8.27758 0.456115C8.84201 0.171859 9.53098 0.39767 9.81451 0.963526L11.1395 3.60153C11.3355 3.98939 11.2931 4.4543 11.0361 4.80497L9.18119 7.29952C8.95595 7.60237 8.61147 7.76176 8.26168 7.76176L8.26433 7.75911Z" fill="url(#paint1_linear_4001_6732)"></path><path d="M7.94899 7.06842L18.265 7.06577L25.1732 18.8558L18.5485 30.3588H8.48427L1.32428 18.3802L7.94899 7.06842Z" fill="#FCEA10"></path><path d="M18.5485 31.6871H7.94899C7.47466 31.6871 7.03743 31.4347 6.80159 31.023L0.17688 19.5199C-0.0589599 19.1081 -0.0589599 18.6034 0.17688 18.1916L6.80159 6.6885C7.03743 6.27673 7.47466 6.02435 7.94899 6.02435H18.5485C19.0229 6.02435 19.4601 6.27673 19.6959 6.6885L26.3206 18.1916C26.5565 18.6034 26.5565 19.1081 26.3206 19.5199L19.6959 31.023C19.4601 31.4347 19.0229 31.6871 18.5485 31.6871ZM8.71481 29.0305H17.7854L23.6443 18.8557L17.7854 8.68095H8.71481L2.85591 18.8557L8.71481 29.0305Z" fill="#662483"></path><path d="M27.8549 31.6871H17.2554C16.7811 31.6871 16.3438 31.4347 16.108 31.023L9.48328 19.5199C9.24744 19.1081 9.24744 18.6034 9.48328 18.1916L16.108 6.6885C16.3438 6.27673 16.7811 6.02435 17.2554 6.02435H27.8549C28.3293 6.02435 28.7665 6.27673 29.0023 6.6885L33.3428 14.2253C33.7085 14.8602 33.4912 15.6731 32.8579 16.0397C32.2246 16.4063 31.4137 16.1885 31.048 15.5536L27.0891 8.68095H18.0186L12.1597 18.8557L18.0186 29.0305H27.0891L31.4296 21.4964C31.7953 20.8615 32.6062 20.6436 33.2395 21.0102C33.8728 21.3768 34.0901 22.1898 33.7244 22.8247L29.0023 31.023C28.7665 31.4347 28.3293 31.6871 27.8549 31.6871Z" fill="#662483"></path><path d="M33.1044 19.8759C33.9283 19.8759 34.5963 19.2063 34.5963 18.3802C34.5963 17.5542 33.9283 16.8846 33.1044 16.8846C32.2804 16.8846 31.6125 17.5542 31.6125 18.3802C31.6125 19.2063 32.2804 19.8759 33.1044 19.8759Z" fill="#4C2264"></path><path d="M18.5485 31.6871H7.94897C7.2176 31.6871 6.62402 31.092 6.62402 30.3588C6.62402 29.6256 7.2176 29.0305 7.94897 29.0305H17.7827L23.6416 18.8557L17.7827 8.68095H7.94897C7.2176 8.68095 6.62402 8.08587 6.62402 7.35265C6.62402 6.61943 7.2176 6.02435 7.94897 6.02435H18.5485C19.0228 6.02435 19.4601 6.27673 19.6959 6.6885L26.3206 18.1916C26.5564 18.6034 26.5564 19.1081 26.3206 19.5199L19.6959 31.023C19.4601 31.4347 19.0228 31.6871 18.5485 31.6871Z" fill="url(#paint2_linear_4001_6732)"></path><path d="M27.8549 31.6871H17.2554C16.7811 31.6871 16.3438 31.4347 16.108 31.023L9.48328 19.5199C9.24744 19.1081 9.24744 18.6034 9.48328 18.1916L16.108 6.6885C16.3438 6.27673 16.7811 6.02435 17.2554 6.02435H27.8549C28.5863 6.02435 29.1799 6.61943 29.1799 7.35265C29.1799 8.08587 28.5863 8.68095 27.8549 8.68095H18.0212L12.1623 18.8557L18.0212 29.0305H27.8549C28.5863 29.0305 29.1799 29.6256 29.1799 30.3588C29.1799 31.092 28.5863 31.6871 27.8549 31.6871Z" fill="#662483"></path><path d="M11.3302 28.2893C11.2852 28.2893 11.2401 28.2654 11.2163 28.2229L5.79993 18.7999C5.77608 18.7574 5.77608 18.707 5.79993 18.6645L11.8761 8.53484C11.9132 8.47109 11.9954 8.45249 12.059 8.48968C12.1226 8.52687 12.1411 8.60923 12.104 8.67299L6.06757 18.7362L11.4442 28.0901C11.4813 28.1538 11.4601 28.2335 11.3965 28.2707C11.3753 28.284 11.3514 28.2893 11.3302 28.2893Z" fill="url(#paint3_linear_4001_6732)"></path><path d="M49.4011 12.9926C51.8178 12.9926 53.8847 13.9118 55.5966 15.7475C57.3084 17.5832 58.1643 19.8333 58.1643 22.4979C58.1643 25.1625 57.3084 27.4126 55.5966 29.2483C53.8847 31.0841 51.8205 32.0032 49.4011 32.0032C46.9818 32.0032 44.9493 31.1266 43.5846 29.3759V31.5011H38.9526V6.29797H43.5846V15.6226C44.9493 13.8719 46.889 12.9953 49.4011 12.9953V12.9926ZM44.9838 26.1507C45.9165 27.0991 47.1037 27.572 48.5399 27.572C49.9762 27.572 51.166 27.0991 52.112 26.1507C53.058 25.2023 53.5296 23.9856 53.5296 22.4979C53.5296 21.0102 53.058 19.7935 52.112 18.8451C51.166 17.8967 49.9762 17.4238 48.5399 17.4238C47.1037 17.4238 45.9192 17.8967 44.9838 18.8451C44.051 19.7935 43.5846 21.0102 43.5846 22.4979C43.5846 23.9856 44.051 25.205 44.9838 26.1507Z" fill="#662483"></path><path d="M65.3428 24.4054C65.9655 26.6608 67.6535 27.7899 70.4068 27.7899C72.1769 27.7899 73.5177 27.1895 74.4293 25.9887L78.163 28.1485C76.3902 30.7174 73.7827 32.0006 70.3352 32.0006C67.3673 32.0006 64.9851 31.1 63.1885 29.3015C61.3919 27.503 60.4962 25.2342 60.4962 22.4979C60.4962 19.7616 61.3813 17.5248 63.154 15.713C64.9241 13.9012 67.2004 12.9953 69.9775 12.9953C72.6115 12.9953 74.7817 13.9065 76.4935 15.7316C78.2054 17.5566 79.0613 19.8121 79.0613 22.5006C79.0613 23.101 79.0003 23.7359 78.8811 24.408H65.3428V24.4054ZM74.4266 20.8057C74.1616 19.581 73.6184 18.6698 72.7917 18.0694C71.9649 17.469 71.0268 17.1688 69.9722 17.1688C68.7267 17.1688 67.6986 17.4876 66.8851 18.1225C66.0715 18.7601 65.5336 19.6527 65.2686 20.8057H74.4266Z" fill="#662483"></path><path d="M86.0623 24.4054C86.685 26.6608 88.373 27.7899 91.1262 27.7899C92.8963 27.7899 94.2372 27.1895 95.1487 25.9887L98.8824 28.1485C97.1096 30.7174 94.5022 32.0006 91.0547 32.0006C88.0868 32.0006 85.7045 31.1 83.9079 29.3015C82.1113 27.503 81.2156 25.2342 81.2156 22.4979C81.2156 19.7616 82.1007 17.5248 83.8735 15.713C85.6436 13.9012 87.9198 12.9953 90.6969 12.9953C93.3309 12.9953 95.5012 13.9065 97.213 15.7316C98.9248 17.5566 99.7807 19.8121 99.7807 22.5006C99.7807 23.101 99.7198 23.7359 99.6005 24.408H86.0623V24.4054ZM95.1461 20.8057C94.8811 19.581 94.3379 18.6698 93.5111 18.0694C92.6843 17.469 91.7463 17.1688 90.6916 17.1688C89.4462 17.1688 88.418 17.4876 87.6045 18.1225C86.791 18.7601 86.2531 19.6527 85.9881 20.8057H95.1461Z" fill="#662483"></path><path d="M111.414 32.0006C108.708 32.0006 106.453 31.0894 104.646 29.2643C102.839 27.4419 101.935 25.1837 101.935 22.4953C101.935 19.8068 102.839 17.5513 104.646 15.7262C106.453 13.9038 108.708 12.9899 111.414 12.9899C113.16 12.9899 114.753 13.4097 116.189 14.2492C117.625 15.0887 118.714 16.2177 119.456 17.6337L115.471 19.9741C115.11 19.2303 114.567 18.6432 113.836 18.2102C113.104 17.7771 112.286 17.562 111.377 17.562C109.988 17.562 108.838 18.0242 107.929 18.9487C107.02 19.8732 106.564 21.0554 106.564 22.4953C106.564 23.9351 107.018 25.0828 107.929 26.0046C108.838 26.9291 109.988 27.3914 111.377 27.3914C112.309 27.3914 113.141 27.1815 113.873 26.7618C114.602 26.342 115.147 25.7602 115.508 25.0164L119.53 27.3196C118.741 28.7356 117.628 29.87 116.191 30.7228C114.755 31.5755 113.163 32.0006 111.416 32.0006H111.414Z" fill="#662483"></path><path d="M126.746 16.5923C127.178 15.4393 127.888 14.5759 128.882 13.9995C129.875 13.423 130.983 13.1361 132.205 13.1361V18.3191C130.792 18.1517 129.528 18.4386 128.415 19.1825C127.302 19.9263 126.746 21.1616 126.746 22.8911V31.4958H122.114V13.4974H126.746V16.5923Z" fill="#662483"></path><path d="M149.511 29.2457C147.667 31.0814 145.417 32.0006 142.759 32.0006C140.101 32.0006 137.857 31.0814 136.026 29.2457C134.195 27.41 133.278 25.1598 133.278 22.4953C133.278 19.8307 134.195 17.5806 136.026 15.7448C137.857 13.9091 140.101 12.9899 142.759 12.9899C145.417 12.9899 147.667 13.9091 149.511 15.7448C151.355 17.5806 152.275 19.8307 152.275 22.4953C152.275 25.1598 151.353 27.41 149.511 29.2457ZM139.296 26.0604C140.218 26.9955 141.373 27.4658 142.762 27.4658C144.15 27.4658 145.311 26.9982 146.244 26.0604C147.177 25.1253 147.643 23.9351 147.643 22.4953C147.643 21.0554 147.177 19.8679 146.244 18.9301C145.311 17.9923 144.148 17.5248 142.762 17.5248C141.376 17.5248 140.218 17.9923 139.296 18.9301C138.374 19.8652 137.913 21.0527 137.913 22.4953C137.913 23.9378 138.374 25.1226 139.296 26.0604Z" fill="#662483"></path><path d="M179.489 13.4974L174.253 31.4958H169.714L166.317 20.5878L162.92 31.4958H158.38L153.102 13.4974H157.999L161.073 24.5488L164.343 13.4974H168.725L171.995 24.5887L175.04 13.4974H179.489Z" fill="#662483"></path><path d="M195.367 6.29797H199.999V31.4985H195.367V29.3732C194.003 31.1266 192.063 32.0006 189.551 32.0006C187.039 32.0006 185.067 31.0814 183.355 29.2457C181.644 27.41 180.788 25.1598 180.788 22.4953C180.788 19.8307 181.644 17.5806 183.355 15.7448C185.067 13.9091 187.132 12.9899 189.551 12.9899C191.97 12.9899 194.003 13.8666 195.367 15.6173V6.29797ZM186.84 26.1507C187.786 27.0991 188.976 27.572 190.412 27.572C191.848 27.572 193.033 27.0991 193.968 26.1507C194.901 25.2023 195.37 23.9856 195.37 22.4979C195.37 21.0102 194.904 19.7935 193.968 18.8451C193.035 17.8967 191.851 17.4238 190.412 17.4238C188.973 17.4238 187.783 17.8967 186.84 18.8451C185.897 19.7935 185.422 21.0102 185.422 22.4979C185.422 23.9856 185.894 25.205 186.84 26.1507Z" fill="#662483"></path><defs><linearGradient id="paint0_linear_4001_6732" x1="14.7884" y1="7.75911" x2="14.7884" y2="0.333912" gradientUnits="userSpaceOnUse"><stop stop-color="#4C2264" stop-opacity="0"></stop><stop offset="0.5" stop-color="#4C2264"></stop></linearGradient><linearGradient id="paint1_linear_4001_6732" x1="9.19179" y1="0.333912" x2="9.19179" y2="0.333912" gradientUnits="userSpaceOnUse"><stop stop-color="#4C2264" stop-opacity="0"></stop><stop offset="0.5" stop-color="#4C2264"></stop></linearGradient><linearGradient id="paint2_linear_4001_6732" x1="6.62402" y1="18.8557" x2="26.4982" y2="18.8557" gradientUnits="userSpaceOnUse"><stop stop-color="#4C2264" stop-opacity="0"></stop><stop offset="0.5" stop-color="#4C2264"></stop></linearGradient><linearGradient id="paint3_linear_4001_6732" x1="8.95064" y1="28.2893" x2="8.95064" y2="8.47109" gradientUnits="userSpaceOnUse"><stop stop-color="#4C2264" stop-opacity="0"></stop><stop offset="0.5" stop-color="#4C2264"></stop></linearGradient></defs></svg>